# xmcd CD database file
#
# Track frame offsets:
#	150
#	99905
#	108432
#	127830
#	140195
#	172895
#	196602
#
# Disc length: 2807 seconds
#
# Revision: 0
# Processed by: cddbd v1.4PL0 Copyright (c) Steve Scherf et al.
# Submitted via: CDex 1.50Beta5
#
DISCID=520af507
DTITLE=Duke Ellington - Jazz at the Plaza Vol. 2
DYEAR=1958
DGENRE=Jazz
TTITLE0=Jazz Festival Suite
TTITLE1=Jones
TTITLE2=El Gato
TTITLE3=All Of Me
TTITLE4=Blues Suite
TTITLE5=When Your Lover Has Gone
TTITLE6=Take the "A" Train
EXTD=YEAR: 1958
EXTT0=
EXTT1=
EXTT2=
EXTT3=
EXTT4=
EXTT5=
EXTT6=
PLAYORDER=
